<svg xmlns="http://www.w3.org/2000/svg" viewBox="0 0 48 48"><defs><style>.cls-1{fill:#ff6d00;}.cls-2{fill:#fff;}.cls-3{fill:#9e9e9e;}</style></defs><g id="レイヤー_1" data-name="レイヤー 1"><circle class="cls-1" cx="24" cy="24" r="24"/><circle class="cls-2" cx="24" cy="24" r="21"/><path d="M20.5,16.3v4.2H16.3V16.3h4.2m2.1-2.1H14.2v8.4h8.4V14.2Z"/><path d="M20.5,27.5v4.2H16.3V27.5h4.2m2.1-2.1H14.2v8.4h8.4V25.4Z"/><path d="M31.7,16.3v4.2H27.5V16.3h4.2m2.1-2.1H25.4v8.4h8.4V14.2Z"/><rect x="25.4" y="25.4" width="2.1" height="2.1"/><rect x="27.5" y="27.5" width="2.1" height="2.1"/><rect x="29.6" y="25.4" width="2.1" height="2.1"/><rect x="25.4" y="29.6" width="2.1" height="2.1"/><rect x="27.5" y="31.7" width="2.1" height="2.1"/><rect x="29.6" y="29.6" width="2.1" height="2.1"/><rect x="31.7" y="27.5" width="2.1" height="2.1"/><rect x="31.7" y="31.7" width="2.1" height="2.1"/><polygon class="cls-3" points="38 17 35.2 17 35.2 12.8 31 12.8 31 10 38 10 38 17"/><polygon class="cls-3" points="38 38 38 31 35.2 31 35.2 35.2 31 35.2 31 38 38 38"/><polygon class="cls-3" points="10 38 17 38 17 35.2 12.8 35.2 12.8 31 10 31 10 38"/><polygon class="cls-3" points="10 10 10 17 12.8 17 12.8 12.8 17 12.8 17 10 10 10"/></g></svg>