<svg xmlns="http://www.w3.org/2000/svg" viewBox="0 0 108 108"><defs><style>.cls-1{fill:#fff;}.cls-2{fill:#9e9e9e;}</style></defs><g id="レイヤー_2" data-name="レイヤー 2"><circle class="cls-1" cx="54" cy="54" r="33"/><path d="M48.75,42.45v6.3h-6.3v-6.3h6.3M51.9,39.3H39.3V51.9H51.9V39.3Z"/><path d="M48.75,59.25v6.3h-6.3v-6.3h6.3M51.9,56.1H39.3V68.7H51.9V56.1Z"/><path d="M65.55,42.45v6.3h-6.3v-6.3h6.3M68.7,39.3H56.1V51.9H68.7V39.3Z"/><rect x="56.1" y="56.1" width="3.15" height="3.15"/><rect x="59.25" y="59.25" width="3.15" height="3.15"/><rect x="62.4" y="56.1" width="3.15" height="3.15"/><rect x="56.1" y="62.4" width="3.15" height="3.15"/><rect x="59.25" y="65.55" width="3.15" height="3.15"/><rect x="62.4" y="62.4" width="3.15" height="3.15"/><rect x="65.55" y="59.25" width="3.15" height="3.15"/><rect x="65.55" y="65.55" width="3.15" height="3.15"/><polygon class="cls-2" points="75 43.5 70.8 43.5 70.8 37.2 64.5 37.2 64.5 33 75 33 75 43.5"/><polygon class="cls-2" points="75 75 75 64.5 70.8 64.5 70.8 70.8 64.5 70.8 64.5 75 75 75"/><polygon class="cls-2" points="33 75 43.5 75 43.5 70.8 37.2 70.8 37.2 64.5 33 64.5 33 75"/><polygon class="cls-2" points="33 33 33 43.5 37.2 43.5 37.2 37.2 43.5 37.2 43.5 33 33 33"/></g></svg>