<svg id="ic_launcher_monochrome" xmlns="http://www.w3.org/2000/svg" viewBox="0 0 90 90"><path d="M41.06,36.34v4.72H36.34V36.34ZM43.43,34H34v9.45h9.45V34Z"/><path d="M41.06,48.94v4.72H36.34V48.94Zm2.37-2.37H34V56h9.45V46.57Z"/><path d="M53.66,36.34v4.72H48.94V36.34ZM56,34H46.57v9.45H56V34Z"/><rect x="46.57" y="46.57" width="2.36" height="2.36"/><rect x="48.94" y="48.94" width="2.36" height="2.36"/><rect x="51.3" y="46.57" width="2.36" height="2.36"/><rect x="46.57" y="51.3" width="2.36" height="2.36"/><rect x="48.94" y="53.66" width="2.36" height="2.36"/><rect x="51.3" y="51.3" width="2.36" height="2.36"/><rect x="53.66" y="48.94" width="2.36" height="2.36"/><rect x="53.66" y="53.66" width="2.36" height="2.36"/><polygon points="60.75 37.13 57.6 37.13 57.6 32.4 52.88 32.4 52.88 29.25 60.75 29.25 60.75 37.13"/><polygon points="60.75 60.75 60.75 52.88 57.6 52.88 57.6 57.6 52.88 57.6 52.88 60.75 60.75 60.75"/><polygon points="29.25 60.75 37.13 60.75 37.13 57.6 32.4 57.6 32.4 52.88 29.25 52.88 29.25 60.75"/><polygon points="29.25 29.25 29.25 37.13 32.4 37.13 32.4 32.4 37.13 32.4 37.13 29.25 29.25 29.25"/></svg>